<?xml version="1.0" encoding="UTF-8"?>
<svg width="24px" height="14px" viewBox="0 0 24 14" version="1.1" xmlns="http://www.w3.org/2000/svg" xmlns:xlink="http://www.w3.org/1999/xlink">
    <!-- Generator: sketchtool 51.3 (57544) - http://www.bohemiancoding.com/sketch -->
    <title>3460362A-D48E-4D53-93A0-3BBAB508D3E7</title>
    <desc>Created with sketchtool.</desc>
    <defs></defs>
    <g id="New" stroke="none" stroke-width="1" fill="none" fill-rule="evenodd" opacity="0.5">
        <g id="010_-Customer" transform="translate(-457.000000, -643.000000)" fill="#333333">
            <g id="Content" transform="translate(60.000000, 60.000000)">
                <g id="column1" transform="translate(208.000000, 82.000000)">
                    <g id="password" transform="translate(0.000000, 424.000000)">
                        <g transform="translate(20.000000, 48.000000)" id="icon">
                            <g transform="translate(169.000000, 29.000000)">
                                <path d="M11.8153846,5.68615385 C10.9995869,5.68615385 10.3384615,6.36514734 10.3384615,7.20246154 C10.3384615,8.04001382 10.9995869,8.71876923 11.8153846,8.71876923 C12.6311823,8.71876923 13.2923077,8.04001382 13.2923077,7.20246154 C13.2923077,6.36514734 12.6311823,5.68615385 11.8153846,5.68615385" id="Fill-4"></path>
                                <path d="M11.8814257,11.4860068 C9.35619802,11.4860068 7.30930693,9.42366875 7.30930693,6.87938425 C7.30930693,4.33533917 9.35619802,2.27276168 11.8814257,2.27276168 C14.4066535,2.27276168 16.4535446,4.33509975 16.4535446,6.87938425 C16.4535446,9.42366875 14.4066535,11.4860068 11.8814257,11.4860068 M23.7614257,6.83485269 C23.7609505,6.82479718 23.76,6.8152205 23.7592871,6.8054044 C23.7588119,6.80037664 23.7585743,6.79534888 23.758099,6.79056054 C23.7576238,6.78337803 23.756198,6.77619552 23.7552475,6.76925243 C23.754297,6.76087284 23.7533465,6.75249324 23.7519208,6.74435306 C23.7516832,6.74339539 23.7514455,6.74219831 23.7514455,6.74124064 C23.7222178,6.5561713 23.6357228,6.38259397 23.5031287,6.24899928 C22.7451089,5.34376359 21.8433267,4.53812537 20.9263366,3.80239692 C18.9514455,2.21697752 16.6928317,0.890607313 14.1996832,0.356707394 C12.7587327,0.0483382931 11.3087525,0.0351703579 9.86019802,0.296134892 C8.54257426,0.53363656 7.27271287,1.02731442 6.08411881,1.63926429 C4.22376238,2.5969323 2.52475248,3.91731708 1.04435644,5.39763241 C0.770376238,5.67152547 0.497821782,5.95116453 0.248792079,6.24875986 C-0.0829306931,6.64475559 -0.0829306931,7.1137735 0.248792079,7.50976922 C1.00681188,8.41500492 1.90859406,9.22040372 2.82558416,9.95637159 C4.80071287,11.541791 7.05932673,12.8679218 9.55247525,13.4018217 C10.9934257,13.7104302 12.4436436,13.7235981 13.892198,13.4626336 C15.2095842,13.2251319 16.4794455,12.7314541 17.6685149,12.1195042 C19.5286337,11.1618362 21.2276436,9.84145143 22.7082772,8.36113609 C22.9820198,8.08700362 23.2545743,7.80760398 23.503604,7.51000864 C23.636198,7.37617454 23.7226931,7.20283663 23.7519208,7.01752786 C23.7519208,7.0165702 23.7521584,7.01537311 23.752396,7.01441544 C23.7538218,7.00603585 23.7547723,6.99789567 23.7557228,6.98951607 C23.7566733,6.98257298 23.7578614,6.97539047 23.7585743,6.96820796 C23.7590495,6.9631802 23.7592871,6.95839186 23.7597624,6.95336411 C23.7604752,6.94378743 23.7614257,6.93421075 23.761901,6.92415523 C23.7626139,6.90931138 23.7630891,6.89446752 23.7630891,6.87938425 C23.7630891,6.86430098 23.7621386,6.84969654 23.7614257,6.83485269" id="Fill-1"></path>
                            </g>
                        </g>
                    </g>
                </g>
            </g>
        </g>
    </g>
</svg>