<?xml version="1.0" ?><!DOCTYPE svg  PUBLIC '-//W3C//DTD SVG 1.1//EN'  'http://www.w3.org/Graphics/SVG/1.1/DTD/svg11.dtd'><svg enable-background="new 0 0 512 512" height="512px" id="processor_1_" version="1.1" viewBox="0 0 512 512" width="512px" xml:space="preserve" xmlns="http://www.w3.org/2000/svg" xmlns:xlink="http://www.w3.org/1999/xlink"><g id="processor"><linearGradient gradientUnits="userSpaceOnUse" id="SVGID_1_" x1="101.1758" x2="409.4119" y1="345.0947" y2="167.1345"><stop offset="0" style="stop-color:#F14D5C"/><stop offset="0.1309" style="stop-color:#F05454"/><stop offset="0.3346" style="stop-color:#ED663E"/><stop offset="0.3492" style="stop-color:#ED683C"/><stop offset="0.714" style="stop-color:#F3903F"/><stop offset="1" style="stop-color:#FDC70C"/></linearGradient><path d="M396.207,210.913c-11.175,0-20.267,9.091-20.267,20.266c0,9.447,6.507,17.381,15.267,19.617v38.964   h-37.084v-84.976c0-23.729-17.564-43.429-40.373-46.793v-19.94h31.587v-30.418c8.76-2.235,15.266-10.17,15.266-19.617   c0-11.175-9.091-20.266-20.266-20.266s-20.267,9.091-20.267,20.266c0,9.447,6.506,17.381,15.267,19.617v20.418H303.75v29.428   h-43.148v-26.642c8.76-2.235,15.267-10.17,15.267-19.617c0-11.175-9.092-20.266-20.267-20.266s-20.266,9.091-20.266,20.266   c0,9.447,6.506,17.381,15.266,19.617v26.642h-43.895v-29.428H175.12v-20.418c8.761-2.235,15.267-10.17,15.267-19.617   c0-11.175-9.091-20.266-20.267-20.266c-11.175,0-20.266,9.091-20.266,20.266c0,9.447,6.506,17.381,15.266,19.617v30.418h31.587   v20.061c-22.444,3.68-39.627,23.203-39.627,46.673v5.755h-46.286v49.71c-8.761,2.234-15.267,10.168-15.267,19.615   c0,11.176,9.091,20.268,20.267,20.268c11.175,0,20.266-9.092,20.266-20.268c0-9.445-6.506-17.381-15.266-19.615v-39.71h36.286   v86.677c0,23.469,17.183,42.992,39.627,46.672v20.402H165.12v30.078c-8.76,2.234-15.266,10.17-15.266,19.615   c0,11.176,9.091,20.266,20.266,20.266c11.175,0,20.267-9.09,20.267-20.266c0-9.447-6.506-17.381-15.267-19.615v-20.078h31.587   v-29.77h43.895v27.57c-8.76,2.234-15.266,10.17-15.266,19.615c0,11.176,9.091,20.266,20.266,20.266s20.267-9.09,20.267-20.266   c0-9.445-6.507-17.381-15.267-19.615v-27.57h43.676v29.77h31.586v20.078c-8.76,2.234-15.266,10.17-15.266,19.615   c0,11.176,9.091,20.266,20.266,20.266s20.267-9.09,20.267-20.266c0-9.445-6.507-17.381-15.267-19.615v-30.078h-31.586v-20.363   c22.552-3.588,39.846-23.166,39.846-46.711v-7.457h47.084v-48.964c8.76-2.236,15.266-10.17,15.266-19.617   C416.473,220.004,407.382,210.913,396.207,210.913z M330.07,88.016c0-5.661,4.605-10.266,10.267-10.266   c5.66,0,10.266,4.605,10.266,10.266c0,5.661-4.605,10.267-10.266,10.267C334.676,98.282,330.07,93.677,330.07,88.016z    M245.335,111.22c0-5.661,4.605-10.266,10.266-10.266s10.267,4.605,10.267,10.266c0,5.661-4.605,10.267-10.267,10.267   S245.335,116.881,245.335,111.22z M159.854,88.016c0-5.661,4.605-10.266,10.266-10.266c5.661,0,10.267,4.605,10.267,10.266   c0,5.661-4.605,10.267-10.267,10.267C164.459,98.282,159.854,93.677,159.854,88.016z M126.06,279.865   c0,5.662-4.605,10.268-10.266,10.268c-5.661,0-10.267-4.605-10.267-10.268c0-5.66,4.605-10.266,10.267-10.266   C121.455,269.6,126.06,274.205,126.06,279.865z M180.387,423.984c0,5.66-4.605,10.266-10.267,10.266   c-5.661,0-10.266-4.605-10.266-10.266s4.605-10.266,10.266-10.266C175.781,413.719,180.387,418.324,180.387,423.984z    M265.868,401.707c0,5.66-4.605,10.266-10.267,10.266s-10.266-4.605-10.266-10.266s4.605-10.266,10.266-10.266   S265.868,396.047,265.868,401.707z M351.13,423.984c0,5.66-4.605,10.266-10.267,10.266c-5.66,0-10.266-4.605-10.266-10.266   s4.605-10.266,10.266-10.266C346.524,413.719,351.13,418.324,351.13,423.984z M344.123,307.217   c0,20.57-16.734,37.305-37.305,37.305H204.385c-20.57,0-37.305-16.734-37.305-37.305V204.784c0-20.57,16.735-37.306,37.305-37.306   h102.433c20.57,0,37.305,16.735,37.305,37.306V307.217z M396.207,241.445c-5.661,0-10.267-4.605-10.267-10.266   s4.605-10.266,10.267-10.266c5.66,0,10.266,4.605,10.266,10.266S401.867,241.445,396.207,241.445z" fill="url(#SVGID_1_)"/></g></svg>